<svg id="Layer_1" data-name="Layer 1" xmlns="http://www.w3.org/2000/svg" viewBox="0 0 678.28 474.21"><defs><style>.cls-1{fill:#ec6900;}.cls-1,.cls-10,.cls-11,.cls-12,.cls-2,.cls-3,.cls-4,.cls-5,.cls-6,.cls-7,.cls-8,.cls-9{stroke:#1e1e1e;stroke-miterlimit:10;stroke-width:0.5px;}.cls-2{fill:#e2f100;}.cls-3{fill:#3f0007;}.cls-4{fill:#ff28b2;}.cls-5{fill:#006449;}.cls-6{fill:#e63c3c;}.cls-7{fill:#baeaff;}.cls-8{fill:#68ffb9;}.cls-9{fill:#ff16f3;}.cls-10{fill:#52ff44;}.cls-11{fill:#ff96f3;}.cls-12{fill:#0d6eff;}</style></defs><title>canada</title><g id="NS"><polygon class="cls-1" points="669.14 416.54 653.13 415.57 645.95 401.22 654.79 387.83 670.81 388.79 677.99 403.14 669.14 416.54"/><polygon class="cls-1" points="669.14 387.83 653.13 386.87 645.95 372.51 654.79 359.12 670.81 360.08 677.99 374.43 669.14 387.83"/><polygon class="cls-1" points="644.31 402.18 628.29 401.22 621.12 386.87 629.96 373.47 645.98 374.43 653.15 388.79 644.31 402.18"/><polygon class="cls-1" points="644.31 373.47 628.29 372.51 621.12 358.16 629.96 344.76 645.98 345.73 653.15 360.08 644.31 373.47"/></g><g id="NL"><polygon class="cls-2" points="669.14 301.7 653.13 300.74 645.95 286.38 654.79 272.99 670.81 273.95 677.99 288.31 669.14 301.7"/><polygon class="cls-2" points="669.14 272.99 653.13 272.03 645.95 257.68 654.79 244.28 670.81 245.24 677.99 259.6 669.14 272.99"/><polygon class="cls-2" points="669.14 244.28 653.13 243.32 645.95 228.97 654.79 215.57 670.81 216.54 677.99 230.89 669.14 244.28"/><polygon class="cls-2" points="644.31 287.35 628.29 286.38 621.12 272.03 629.96 258.64 645.98 259.6 653.15 273.95 644.31 287.35"/><polygon class="cls-2" points="644.31 258.64 628.29 257.68 621.12 243.32 629.96 229.93 645.98 230.89 653.15 245.24 644.31 258.64"/><polygon class="cls-2" points="644.31 229.93 628.29 228.97 621.12 214.61 629.96 201.22 645.98 202.18 653.15 216.54 644.31 229.93"/><polygon class="cls-2" points="619.48 301.7 603.46 300.74 596.28 286.38 605.13 272.99 621.14 273.95 628.32 288.31 619.48 301.7"/><polygon class="cls-2" points="619.48 272.99 603.46 272.03 596.28 257.68 605.13 244.28 621.14 245.24 628.32 259.6 619.48 272.99"/><polygon class="cls-2" points="619.48 244.28 603.46 243.32 596.28 228.97 605.13 215.57 621.14 216.54 628.32 230.89 619.48 244.28"/><polygon class="cls-2" points="619.48 215.57 603.46 214.61 596.28 200.26 605.13 186.87 621.14 187.83 628.32 202.18 619.48 215.57"/><polygon class="cls-2" points="619.48 186.87 603.46 185.9 596.28 171.55 605.13 158.16 621.14 159.12 628.32 173.47 619.48 186.87"/><polygon class="cls-2" points="594.65 287.35 578.63 286.38 571.45 272.03 580.29 258.64 596.31 259.6 603.49 273.95 594.65 287.35"/><polygon class="cls-2" points="594.65 258.64 578.63 257.68 571.45 243.32 580.29 229.93 596.31 230.89 603.49 245.24 594.65 258.64"/><polygon class="cls-2" points="594.65 229.93 578.63 228.97 571.45 214.61 580.29 201.22 596.31 202.18 603.49 216.54 594.65 229.93"/><polygon class="cls-2" points="594.65 201.22 578.63 200.26 571.45 185.9 580.29 172.51 596.31 173.47 603.49 187.83 594.65 201.22"/><polygon class="cls-2" points="569.81 301.7 553.79 300.74 546.62 286.38 555.46 272.99 571.48 273.95 578.66 288.31 569.81 301.7"/><polygon class="cls-2" points="569.81 272.99 553.79 272.03 546.62 257.68 555.46 244.28 571.48 245.24 578.66 259.6 569.81 272.99"/><polygon class="cls-2" points="569.81 244.28 553.79 243.32 546.62 228.97 555.46 215.57 571.48 216.54 578.66 230.89 569.81 244.28"/><polygon class="cls-2" points="569.81 215.57 553.79 214.61 546.62 200.26 555.46 186.87 571.48 187.83 578.66 202.18 569.81 215.57"/><polygon class="cls-2" points="569.81 186.87 553.79 185.9 546.62 171.55 555.46 158.16 571.48 159.12 578.66 173.47 569.81 186.87"/><polygon class="cls-2" points="644.31 316.06 628.29 315.09 621.12 300.74 629.96 287.35 645.98 288.31 653.15 302.66 644.31 316.06"/><polygon class="cls-2" points="619.48 330.41 603.46 329.45 596.28 315.09 605.13 301.7 621.14 302.66 628.32 317.02 619.48 330.41"/></g><g id="NB"><polygon class="cls-3" points="619.48 387.83 603.46 386.87 596.28 372.51 605.13 359.12 621.14 360.08 628.32 374.43 619.48 387.83"/><polygon class="cls-3" points="594.65 430.89 578.63 429.93 571.45 415.57 580.29 402.18 596.31 403.14 603.49 417.5 594.65 430.89"/><polygon class="cls-3" points="594.65 402.18 578.63 401.22 571.45 386.87 580.29 373.47 596.31 374.43 603.49 388.79 594.65 402.18"/><polygon class="cls-3" points="594.65 373.47 578.63 372.51 571.45 358.16 580.29 344.76 596.31 345.73 603.49 360.08 594.65 373.47"/><polygon class="cls-3" points="594.65 344.76 578.63 343.8 571.45 329.45 580.29 316.06 596.31 317.02 603.49 331.37 594.65 344.76"/></g><g id="QC"><polygon class="cls-4" points="594.65 316.06 578.63 315.09 571.45 300.74 580.29 287.35 596.31 288.31 603.49 302.66 594.65 316.06"/><polygon class="cls-4" points="569.81 445.24 553.79 444.28 546.62 429.93 555.46 416.54 571.48 417.5 578.66 431.85 569.81 445.24"/><polygon class="cls-4" points="569.81 416.54 553.79 415.57 546.62 401.22 555.46 387.83 571.48 388.79 578.66 403.14 569.81 416.54"/><polygon class="cls-4" points="569.81 387.83 553.79 386.87 546.62 372.51 555.46 359.12 571.48 360.08 578.66 374.43 569.81 387.83"/><polygon class="cls-4" points="569.81 359.12 553.79 358.16 546.62 343.8 555.46 330.41 571.48 331.37 578.66 345.73 569.81 359.12"/><polygon class="cls-4" points="569.81 330.41 553.79 329.45 546.62 315.09 555.46 301.7 571.48 302.66 578.66 317.02 569.81 330.41"/><polygon class="cls-4" points="544.98 459.6 528.96 458.64 521.78 444.28 530.63 430.89 546.64 431.85 553.82 446.21 544.98 459.6"/><polygon class="cls-4" points="544.98 430.89 528.96 429.93 521.78 415.57 530.63 402.18 546.64 403.14 553.82 417.5 544.98 430.89"/><polygon class="cls-4" points="544.98 402.18 528.96 401.22 521.78 386.87 530.63 373.47 546.64 374.43 553.82 388.79 544.98 402.18"/><polygon class="cls-4" points="544.98 373.47 528.96 372.51 521.78 358.16 530.63 344.76 546.64 345.73 553.82 360.08 544.98 373.47"/><polygon class="cls-4" points="544.98 344.76 528.96 343.8 521.78 329.45 530.63 316.06 546.64 317.02 553.82 331.37 544.98 344.76"/><polygon class="cls-4" points="544.98 316.06 528.96 315.09 521.78 300.74 530.63 287.35 546.64 288.31 553.82 302.66 544.98 316.06"/><polygon class="cls-4" points="544.98 287.35 528.96 286.38 521.78 272.03 530.63 258.64 546.64 259.6 553.82 273.95 544.98 287.35"/><polygon class="cls-4" points="544.98 258.64 528.96 257.68 521.78 243.32 530.63 229.93 546.64 230.89 553.82 245.24 544.98 258.64"/><polygon class="cls-4" points="544.98 229.93 528.96 228.97 521.78 214.61 530.63 201.22 546.64 202.18 553.82 216.54 544.98 229.93"/><polygon class="cls-4" points="544.98 201.22 528.96 200.26 521.78 185.9 530.63 172.51 546.64 173.47 553.82 187.83 544.98 201.22"/><polygon class="cls-4" points="520.15 473.95 504.13 472.99 496.95 458.64 505.79 445.24 521.81 446.21 528.99 460.56 520.15 473.95"/><polygon class="cls-4" points="520.15 445.24 504.13 444.28 496.95 429.93 505.79 416.54 521.81 417.5 528.99 431.85 520.15 445.24"/><polygon class="cls-4" points="520.15 416.54 504.13 415.57 496.95 401.22 505.79 387.83 521.81 388.79 528.99 403.14 520.15 416.54"/><polygon class="cls-4" points="520.15 387.83 504.13 386.87 496.95 372.51 505.79 359.12 521.81 360.08 528.99 374.43 520.15 387.83"/><polygon class="cls-4" points="520.15 359.12 504.13 358.16 496.95 343.8 505.79 330.41 521.81 331.37 528.99 345.73 520.15 359.12"/><polygon class="cls-4" points="520.15 330.41 504.13 329.45 496.95 315.09 505.79 301.7 521.81 302.66 528.99 317.02 520.15 330.41"/><polygon class="cls-4" points="520.15 301.7 504.13 300.74 496.95 286.38 505.79 272.99 521.81 273.95 528.99 288.31 520.15 301.7"/><polygon class="cls-4" points="520.15 272.99 504.13 272.03 496.95 257.68 505.79 244.28 521.81 245.24 528.99 259.6 520.15 272.99"/><polygon class="cls-4" points="520.15 244.28 504.13 243.32 496.95 228.97 505.79 215.57 521.81 216.54 528.99 230.89 520.15 244.28"/><polygon class="cls-4" points="520.15 215.57 504.13 214.61 496.95 200.26 505.79 186.87 521.81 187.83 528.99 202.18 520.15 215.57"/><polygon class="cls-4" points="495.31 430.89 479.29 429.93 472.12 415.57 480.96 402.18 496.98 403.14 504.16 417.5 495.31 430.89"/><polygon class="cls-4" points="495.31 402.18 479.29 401.22 472.12 386.87 480.96 373.47 496.98 374.43 504.16 388.79 495.31 402.18"/><polygon class="cls-4" points="495.31 373.47 479.29 372.51 472.12 358.16 480.96 344.76 496.98 345.73 504.16 360.08 495.31 373.47"/><polygon class="cls-4" points="495.31 344.76 479.29 343.8 472.12 329.45 480.96 316.06 496.98 317.02 504.16 331.37 495.31 344.76"/><polygon class="cls-4" points="495.31 316.06 479.29 315.09 472.12 300.74 480.96 287.35 496.98 288.31 504.16 302.66 495.31 316.06"/><polygon class="cls-4" points="495.31 287.35 479.29 286.38 472.12 272.03 480.96 258.64 496.98 259.6 504.16 273.95 495.31 287.35"/><polygon class="cls-4" points="495.31 258.64 479.29 257.68 472.12 243.32 480.96 229.93 496.98 230.89 504.16 245.24 495.31 258.64"/><polygon class="cls-4" points="495.31 229.93 479.29 228.97 472.12 214.61 480.96 201.22 496.98 202.18 504.16 216.54 495.31 229.93"/><polygon class="cls-4" points="495.31 201.22 479.29 200.26 472.12 185.9 480.96 172.51 496.98 173.47 504.16 187.83 495.31 201.22"/><polygon class="cls-4" points="470.48 416.54 454.46 415.57 447.28 401.22 456.13 387.83 472.15 388.79 479.32 403.14 470.48 416.54"/><polygon class="cls-4" points="470.48 387.83 454.46 386.87 447.28 372.51 456.13 359.12 472.15 360.08 479.32 374.43 470.48 387.83"/><polygon class="cls-4" points="470.48 359.12 454.46 358.16 447.28 343.8 456.13 330.41 472.15 331.37 479.32 345.73 470.48 359.12"/><polygon class="cls-4" points="470.48 244.28 454.46 243.32 447.28 228.97 456.13 215.57 472.15 216.54 479.32 230.89 470.48 244.28"/><polygon class="cls-4" points="470.48 215.57 454.46 214.61 447.28 200.26 456.13 186.87 472.15 187.83 479.32 202.18 470.48 215.57"/></g><g id="ON"><polygon class="cls-5" points="445.65 402.18 429.63 401.22 422.45 386.87 431.29 373.47 447.31 374.43 454.49 388.79 445.65 402.18"/><polygon class="cls-5" points="445.65 373.47 429.63 372.51 422.45 358.16 431.29 344.76 447.31 345.73 454.49 360.08 445.65 373.47"/><polygon class="cls-5" points="445.65 344.76 429.63 343.8 422.45 329.45 431.29 316.06 447.31 317.02 454.49 331.37 445.65 344.76"/><polygon class="cls-5" points="420.81 416.54 404.8 415.57 397.62 401.22 406.46 387.83 422.48 388.79 429.66 403.14 420.81 416.54"/><polygon class="cls-5" points="420.81 387.83 404.8 386.87 397.62 372.51 406.46 359.12 422.48 360.08 429.66 374.43 420.81 387.83"/><polygon class="cls-5" points="420.81 359.12 404.8 358.16 397.62 343.8 406.46 330.41 422.48 331.37 429.66 345.73 420.81 359.12"/><polygon class="cls-5" points="420.81 330.41 404.8 329.45 397.62 315.09 406.46 301.7 422.48 302.66 429.66 317.02 420.81 330.41"/><polygon class="cls-5" points="395.98 402.18 379.96 401.22 372.78 386.87 381.63 373.47 397.65 374.43 404.82 388.79 395.98 402.18"/><polygon class="cls-5" points="395.98 373.47 379.96 372.51 372.78 358.16 381.63 344.76 397.65 345.73 404.82 360.08 395.98 373.47"/><polygon class="cls-5" points="395.98 344.76 379.96 343.8 372.78 329.45 381.63 316.06 397.65 317.02 404.82 331.37 395.98 344.76"/><polygon class="cls-5" points="371.15 416.54 355.13 415.57 347.95 401.22 356.79 387.83 372.81 388.79 379.99 403.14 371.15 416.54"/><polygon class="cls-5" points="371.15 387.83 355.13 386.87 347.95 372.51 356.79 359.12 372.81 360.08 379.99 374.43 371.15 387.83"/><polygon class="cls-5" points="371.15 359.12 355.13 358.16 347.95 343.8 356.79 330.41 372.81 331.37 379.99 345.73 371.15 359.12"/><polygon class="cls-5" points="371.15 330.41 355.13 329.45 347.95 315.09 356.79 301.7 372.81 302.66 379.99 317.02 371.15 330.41"/><polygon class="cls-5" points="371.15 301.7 355.13 300.74 347.95 286.38 356.79 272.99 372.81 273.95 379.99 288.31 371.15 301.7"/><polygon class="cls-5" points="346.31 402.18 330.3 401.22 323.12 386.87 331.96 373.47 347.98 374.43 355.16 388.79 346.31 402.18"/><polygon class="cls-5" points="346.31 373.47 330.3 372.51 323.12 358.16 331.96 344.76 347.98 345.73 355.16 360.08 346.31 373.47"/><polygon class="cls-5" points="346.31 344.76 330.3 343.8 323.12 329.45 331.96 316.06 347.98 317.02 355.16 331.37 346.31 344.76"/><polygon class="cls-5" points="346.31 316.06 330.3 315.09 323.12 300.74 331.96 287.35 347.98 288.31 355.16 302.66 346.31 316.06"/><polygon class="cls-5" points="346.31 287.35 330.3 286.38 323.12 272.03 331.96 258.64 347.98 259.6 355.16 273.95 346.31 287.35"/><polygon class="cls-5" points="321.48 416.54 305.46 415.57 298.29 401.22 307.13 387.83 323.15 388.79 330.32 403.14 321.48 416.54"/><polygon class="cls-5" points="321.48 387.83 305.46 386.87 298.29 372.51 307.13 359.12 323.15 360.08 330.32 374.43 321.48 387.83"/><polygon class="cls-5" points="321.48 359.12 305.46 358.16 298.29 343.8 307.13 330.41 323.15 331.37 330.32 345.73 321.48 359.12"/><polygon class="cls-5" points="321.48 330.41 305.46 329.45 298.29 315.09 307.13 301.7 323.15 302.66 330.32 317.02 321.48 330.41"/><polygon class="cls-5" points="321.48 301.7 305.46 300.74 298.29 286.38 307.13 272.99 323.15 273.95 330.32 288.31 321.48 301.7"/><polygon class="cls-5" points="321.48 272.99 305.46 272.03 298.29 257.68 307.13 244.28 323.15 245.24 330.32 259.6 321.48 272.99"/></g><g id="MB"><polygon class="cls-6" points="296.65 402.18 280.63 401.22 273.45 386.87 282.3 373.47 298.31 374.43 305.49 388.79 296.65 402.18"/><polygon class="cls-6" points="296.65 373.47 280.63 372.51 273.45 358.16 282.3 344.76 298.31 345.73 305.49 360.08 296.65 373.47"/><polygon class="cls-6" points="296.65 344.76 280.63 343.8 273.45 329.45 282.3 316.06 298.31 317.02 305.49 331.37 296.65 344.76"/><polygon class="cls-6" points="296.65 316.06 280.63 315.09 273.45 300.74 282.3 287.35 298.31 288.31 305.49 302.66 296.65 316.06"/><polygon class="cls-6" points="296.65 287.35 280.63 286.38 273.45 272.03 282.3 258.64 298.31 259.6 305.49 273.95 296.65 287.35"/><polygon class="cls-6" points="296.65 258.64 280.63 257.68 273.45 243.32 282.3 229.93 298.31 230.89 305.49 245.24 296.65 258.64"/><polygon class="cls-6" points="271.82 416.54 255.8 415.57 248.62 401.22 257.46 387.83 273.48 388.79 280.66 403.14 271.82 416.54"/><polygon class="cls-6" points="271.82 387.83 255.8 386.87 248.62 372.51 257.46 359.12 273.48 360.08 280.66 374.43 271.82 387.83"/><polygon class="cls-6" points="271.82 359.12 255.8 358.16 248.62 343.8 257.46 330.41 273.48 331.37 280.66 345.73 271.82 359.12"/><polygon class="cls-6" points="271.82 330.41 255.8 329.45 248.62 315.09 257.46 301.7 273.48 302.66 280.66 317.02 271.82 330.41"/><polygon class="cls-6" points="271.82 301.7 255.8 300.74 248.62 286.38 257.46 272.99 273.48 273.95 280.66 288.31 271.82 301.7"/><polygon class="cls-6" points="271.82 272.99 255.8 272.03 248.62 257.68 257.46 244.28 273.48 245.24 280.66 259.6 271.82 272.99"/><polygon class="cls-6" points="246.98 402.18 230.96 401.22 223.79 386.87 232.63 373.47 248.65 374.43 255.83 388.79 246.98 402.18"/><polygon class="cls-6" points="246.98 373.47 230.96 372.51 223.79 358.16 232.63 344.76 248.65 345.73 255.83 360.08 246.98 373.47"/><polygon class="cls-6" points="246.98 344.76 230.96 343.8 223.79 329.45 232.63 316.06 248.65 317.02 255.83 331.37 246.98 344.76"/><polygon class="cls-6" points="246.98 316.06 230.96 315.09 223.79 300.74 232.63 287.35 248.65 288.31 255.83 302.66 246.98 316.06"/><polygon class="cls-6" points="246.98 287.35 230.96 286.38 223.79 272.03 232.63 258.64 248.65 259.6 255.83 273.95 246.98 287.35"/></g><g id="SK"><polygon class="cls-7" points="222.15 416.54 206.13 415.57 198.95 401.22 207.8 387.83 223.81 388.79 230.99 403.14 222.15 416.54"/><polygon class="cls-7" points="222.15 387.83 206.13 386.87 198.95 372.51 207.8 359.12 223.81 360.08 230.99 374.43 222.15 387.83"/><polygon class="cls-7" points="222.15 359.12 206.13 358.16 198.95 343.8 207.8 330.41 223.81 331.37 230.99 345.73 222.15 359.12"/><polygon class="cls-7" points="222.15 330.41 206.13 329.45 198.95 315.09 207.8 301.7 223.81 302.66 230.99 317.02 222.15 330.41"/><polygon class="cls-7" points="222.15 301.7 206.13 300.74 198.95 286.38 207.8 272.99 223.81 273.95 230.99 288.31 222.15 301.7"/><polygon class="cls-7" points="222.15 272.99 206.13 272.03 198.95 257.68 207.8 244.28 223.81 245.24 230.99 259.6 222.15 272.99"/><polygon class="cls-7" points="197.32 402.18 181.3 401.22 174.12 386.87 182.96 373.47 198.98 374.43 206.16 388.79 197.32 402.18"/><polygon class="cls-7" points="197.32 373.47 181.3 372.51 174.12 358.16 182.96 344.76 198.98 345.73 206.16 360.08 197.32 373.47"/><polygon class="cls-7" points="197.32 344.76 181.3 343.8 174.12 329.45 182.96 316.06 198.98 317.02 206.16 331.37 197.32 344.76"/><polygon class="cls-7" points="197.32 316.06 181.3 315.09 174.12 300.74 182.96 287.35 198.98 288.31 206.16 302.66 197.32 316.06"/><polygon class="cls-7" points="197.32 287.35 181.3 286.38 174.12 272.03 182.96 258.64 198.98 259.6 206.16 273.95 197.32 287.35"/><polygon class="cls-7" points="172.48 416.54 156.46 415.57 149.29 401.22 158.13 387.83 174.15 388.79 181.33 403.14 172.48 416.54"/><polygon class="cls-7" points="172.48 387.83 156.46 386.87 149.29 372.51 158.13 359.12 174.15 360.08 181.33 374.43 172.48 387.83"/><polygon class="cls-7" points="172.48 359.12 156.46 358.16 149.29 343.8 158.13 330.41 174.15 331.37 181.33 345.73 172.48 359.12"/><polygon class="cls-7" points="172.48 330.41 156.46 329.45 149.29 315.09 158.13 301.7 174.15 302.66 181.33 317.02 172.48 330.41"/></g><g id="AB"><polygon class="cls-8" points="172.48 301.7 156.46 300.74 149.29 286.38 158.13 272.99 174.15 273.95 181.33 288.31 172.48 301.7"/><polygon class="cls-8" points="172.48 272.99 156.46 272.03 149.29 257.68 158.13 244.28 174.15 245.24 181.33 259.6 172.48 272.99"/><polygon class="cls-8" points="147.65 402.18 131.63 401.22 124.45 386.87 133.3 373.47 149.32 374.43 156.49 388.79 147.65 402.18"/><polygon class="cls-8" points="147.65 373.47 131.63 372.51 124.45 358.16 133.3 344.76 149.32 345.73 156.49 360.08 147.65 373.47"/><polygon class="cls-8" points="147.65 344.76 131.63 343.8 124.45 329.45 133.3 316.06 149.32 317.02 156.49 331.37 147.65 344.76"/><polygon class="cls-8" points="147.65 316.06 131.63 315.09 124.45 300.74 133.3 287.35 149.32 288.31 156.49 302.66 147.65 316.06"/><polygon class="cls-8" points="147.65 287.35 131.63 286.38 124.45 272.03 133.3 258.64 149.32 259.6 156.49 273.95 147.65 287.35"/><polygon class="cls-8" points="122.82 416.54 106.8 415.57 99.62 401.22 108.46 387.83 124.48 388.79 131.66 403.14 122.82 416.54"/><polygon class="cls-8" points="122.82 387.83 106.8 386.87 99.62 372.51 108.46 359.12 124.48 360.08 131.66 374.43 122.82 387.83"/><polygon class="cls-8" points="122.82 359.12 106.8 358.16 99.62 343.8 108.46 330.41 124.48 331.37 131.66 345.73 122.82 359.12"/><polygon class="cls-8" points="122.82 330.41 106.8 329.45 99.62 315.09 108.46 301.7 124.48 302.66 131.66 317.02 122.82 330.41"/><polygon class="cls-8" points="122.82 301.7 106.8 300.74 99.62 286.38 108.46 272.99 124.48 273.95 131.66 288.31 122.82 301.7"/><polygon class="cls-8" points="122.82 272.99 106.8 272.03 99.62 257.68 108.46 244.28 124.48 245.24 131.66 259.6 122.82 272.99"/></g><g id="BC"><polygon class="cls-9" points="97.98 402.18 81.97 401.22 74.79 386.87 83.63 373.47 99.65 374.43 106.83 388.79 97.98 402.18"/><polygon class="cls-9" points="97.98 373.47 81.97 372.51 74.79 358.16 83.63 344.76 99.65 345.73 106.83 360.08 97.98 373.47"/><polygon class="cls-9" points="97.98 344.76 81.97 343.8 74.79 329.45 83.63 316.06 99.65 317.02 106.83 331.37 97.98 344.76"/><polygon class="cls-9" points="97.98 316.06 81.97 315.09 74.79 300.74 83.63 287.35 99.65 288.31 106.83 302.66 97.98 316.06"/><polygon class="cls-9" points="97.98 287.35 81.97 286.38 74.79 272.03 83.63 258.64 99.65 259.6 106.83 273.95 97.98 287.35"/><polygon class="cls-9" points="97.98 258.64 81.97 257.68 74.79 243.32 83.63 229.93 99.65 230.89 106.83 245.24 97.98 258.64"/><polygon class="cls-9" points="97.98 229.93 81.97 228.97 74.79 214.61 83.63 201.22 99.65 202.18 106.83 216.54 97.98 229.93"/><polygon class="cls-9" points="73.15 416.54 57.13 415.57 49.95 401.22 58.8 387.83 74.82 388.79 81.99 403.14 73.15 416.54"/><polygon class="cls-9" points="73.15 387.83 57.13 386.87 49.95 372.51 58.8 359.12 74.82 360.08 81.99 374.43 73.15 387.83"/><polygon class="cls-9" points="73.15 359.12 57.13 358.16 49.95 343.8 58.8 330.41 74.82 331.37 81.99 345.73 73.15 359.12"/><polygon class="cls-9" points="73.15 330.41 57.13 329.45 49.95 315.09 58.8 301.7 74.82 302.66 81.99 317.02 73.15 330.41"/><polygon class="cls-9" points="73.15 301.7 57.13 300.74 49.95 286.38 58.8 272.99 74.82 273.95 81.99 288.31 73.15 301.7"/><polygon class="cls-9" points="73.15 272.99 57.13 272.03 49.95 257.68 58.8 244.28 74.82 245.24 81.99 259.6 73.15 272.99"/><polygon class="cls-9" points="73.15 244.28 57.13 243.32 49.95 228.97 58.8 215.57 74.82 216.54 81.99 230.89 73.15 244.28"/><polygon class="cls-9" points="48.32 402.18 32.3 401.22 25.12 386.87 33.96 373.47 49.98 374.43 57.16 388.79 48.32 402.18"/><polygon class="cls-9" points="48.32 373.47 32.3 372.51 25.12 358.16 33.96 344.76 49.98 345.73 57.16 360.08 48.32 373.47"/><polygon class="cls-9" points="48.32 344.76 32.3 343.8 25.12 329.45 33.96 316.06 49.98 317.02 57.16 331.37 48.32 344.76"/><polygon class="cls-9" points="48.32 316.06 32.3 315.09 25.12 300.74 33.96 287.35 49.98 288.31 57.16 302.66 48.32 316.06"/><polygon class="cls-9" points="48.32 287.35 32.3 286.38 25.12 272.03 33.96 258.64 49.98 259.6 57.16 273.95 48.32 287.35"/><polygon class="cls-9" points="48.32 258.64 32.3 257.68 25.12 243.32 33.96 229.93 49.98 230.89 57.16 245.24 48.32 258.64"/><polygon class="cls-9" points="48.32 229.93 32.3 228.97 25.12 214.61 33.96 201.22 49.98 202.18 57.16 216.54 48.32 229.93"/><polygon class="cls-9" points="23.48 416.54 7.46 415.57 0.29 401.22 9.13 387.83 25.15 388.79 32.33 403.14 23.48 416.54"/><polygon class="cls-9" points="23.48 387.83 7.46 386.87 0.29 372.51 9.13 359.12 25.15 360.08 32.33 374.43 23.48 387.83"/><polygon class="cls-9" points="23.48 359.12 7.46 358.16 0.29 343.8 9.13 330.41 25.15 331.37 32.33 345.73 23.48 359.12"/><polygon class="cls-9" points="23.48 330.41 7.46 329.45 0.29 315.09 9.13 301.7 25.15 302.66 32.33 317.02 23.48 330.41"/><polygon class="cls-9" points="23.48 301.7 7.46 300.74 0.29 286.38 9.13 272.99 25.15 273.95 32.33 288.31 23.48 301.7"/><polygon class="cls-9" points="23.48 272.99 7.46 272.03 0.29 257.68 9.13 244.28 25.15 245.24 32.33 259.6 23.48 272.99"/><polygon class="cls-9" points="23.48 244.28 7.46 243.32 0.29 228.97 9.13 215.57 25.15 216.54 32.33 230.89 23.48 244.28"/></g><g id="YT"><polygon class="cls-10" points="97.98 201.22 81.97 200.26 74.79 185.9 83.63 172.51 99.65 173.47 106.83 187.83 97.98 201.22"/><polygon class="cls-10" points="97.98 172.51 81.97 171.55 74.79 157.19 83.63 143.8 99.65 144.76 106.83 159.12 97.98 172.51"/><polygon class="cls-10" points="97.98 143.8 81.97 142.84 74.79 128.49 83.63 115.09 99.65 116.06 106.83 130.41 97.98 143.8"/><polygon class="cls-10" points="97.98 115.09 81.97 114.13 74.79 99.78 83.63 86.39 99.65 87.35 106.83 101.7 97.98 115.09"/><polygon class="cls-10" points="97.98 86.39 81.97 85.42 74.79 71.07 83.63 57.68 99.65 58.64 106.83 72.99 97.98 86.39"/><polygon class="cls-10" points="97.98 57.68 81.97 56.71 74.79 42.36 83.63 28.97 99.65 29.93 106.83 44.28 97.98 57.68"/><polygon class="cls-10" points="73.15 215.57 57.13 214.61 49.95 200.26 58.8 186.87 74.82 187.83 81.99 202.18 73.15 215.57"/><polygon class="cls-10" points="73.15 186.87 57.13 185.9 49.95 171.55 58.8 158.16 74.82 159.12 81.99 173.47 73.15 186.87"/><polygon class="cls-10" points="73.15 158.16 57.13 157.19 49.95 142.84 58.8 129.45 74.82 130.41 81.99 144.76 73.15 158.16"/><polygon class="cls-10" points="73.15 129.45 57.13 128.49 49.95 114.13 58.8 100.74 74.82 101.7 81.99 116.06 73.15 129.45"/><polygon class="cls-10" points="73.15 100.74 57.13 99.78 49.95 85.42 58.8 72.03 74.82 72.99 81.99 87.35 73.15 100.74"/><polygon class="cls-10" points="73.15 72.03 57.13 71.07 49.95 56.71 58.8 43.32 74.82 44.28 81.99 58.64 73.15 72.03"/><polygon class="cls-10" points="73.15 43.32 57.13 42.36 49.95 28 58.8 14.61 74.82 15.57 81.99 29.93 73.15 43.32"/><polygon class="cls-10" points="48.32 201.22 32.3 200.26 25.12 185.9 33.96 172.51 49.98 173.47 57.16 187.83 48.32 201.22"/><polygon class="cls-10" points="48.32 172.51 32.3 171.55 25.12 157.19 33.96 143.8 49.98 144.76 57.16 159.12 48.32 172.51"/><polygon class="cls-10" points="48.32 143.8 32.3 142.84 25.12 128.49 33.96 115.09 49.98 116.06 57.16 130.41 48.32 143.8"/><polygon class="cls-10" points="48.32 115.09 32.3 114.13 25.12 99.78 33.96 86.39 49.98 87.35 57.16 101.7 48.32 115.09"/><polygon class="cls-10" points="48.32 86.39 32.3 85.42 25.12 71.07 33.96 57.68 49.98 58.64 57.16 72.99 48.32 86.39"/><polygon class="cls-10" points="48.32 57.68 32.3 56.71 25.12 42.36 33.96 28.97 49.98 29.93 57.16 44.28 48.32 57.68"/><polygon class="cls-10" points="23.48 215.57 7.46 214.61 0.29 200.26 9.13 186.87 25.15 187.83 32.33 202.18 23.48 215.57"/><polygon class="cls-10" points="23.48 186.87 7.46 185.9 0.29 171.55 9.13 158.16 25.15 159.12 32.33 173.47 23.48 186.87"/><polygon class="cls-10" points="23.48 158.16 7.46 157.19 0.29 142.84 9.13 129.45 25.15 130.41 32.33 144.76 23.48 158.16"/><polygon class="cls-10" points="23.48 129.45 7.46 128.49 0.29 114.13 9.13 100.74 25.15 101.7 32.33 116.06 23.48 129.45"/><polygon class="cls-10" points="23.48 100.74 7.46 99.78 0.29 85.42 9.13 72.03 25.15 72.99 32.33 87.35 23.48 100.74"/></g><g id="NU"><polygon class="cls-11" points="495.31 143.8 479.29 142.84 472.12 128.49 480.96 115.09 496.98 116.06 504.16 130.41 495.31 143.8"/><polygon class="cls-11" points="495.31 115.09 479.29 114.13 472.12 99.78 480.96 86.39 496.98 87.35 504.16 101.7 495.31 115.09"/><polygon class="cls-11" points="470.48 158.16 454.46 157.19 447.28 142.84 456.13 129.45 472.15 130.41 479.32 144.76 470.48 158.16"/><polygon class="cls-11" points="470.48 129.45 454.46 128.49 447.28 114.13 456.13 100.74 472.15 101.7 479.32 116.06 470.48 129.45"/><polygon class="cls-11" points="470.48 100.74 454.46 99.78 447.28 85.42 456.13 72.03 472.15 72.99 479.32 87.35 470.48 100.74"/><polygon class="cls-11" points="470.48 72.03 454.46 71.07 447.28 56.71 456.13 43.32 472.15 44.28 479.32 58.64 470.48 72.03"/><polygon class="cls-11" points="445.65 115.09 429.63 114.13 422.45 99.78 431.29 86.39 447.31 87.35 454.49 101.7 445.65 115.09"/><polygon class="cls-11" points="445.65 86.39 429.63 85.42 422.45 71.07 431.29 57.68 447.31 58.64 454.49 72.99 445.65 86.39"/><polygon class="cls-11" points="445.65 57.68 429.63 56.71 422.45 42.36 431.29 28.97 447.31 29.93 454.49 44.28 445.65 57.68"/><polygon class="cls-11" points="420.81 72.03 404.8 71.07 397.62 56.71 406.46 43.32 422.48 44.28 429.66 58.64 420.81 72.03"/><polygon class="cls-11" points="420.81 43.32 404.8 42.36 397.62 28 406.46 14.61 422.48 15.57 429.66 29.93 420.81 43.32"/><polygon class="cls-11" points="395.98 115.09 379.96 114.13 372.78 99.78 381.63 86.39 397.65 87.35 404.82 101.7 395.98 115.09"/><polygon class="cls-11" points="395.98 86.39 379.96 85.42 372.78 71.07 381.63 57.68 397.65 58.64 404.82 72.99 395.98 86.39"/><polygon class="cls-11" points="395.98 57.68 379.96 56.71 372.78 42.36 381.63 28.97 397.65 29.93 404.82 44.28 395.98 57.68"/><polygon class="cls-11" points="395.98 28.97 379.96 28 372.78 13.65 381.63 0.26 397.65 1.22 404.82 15.57 395.98 28.97"/><polygon class="cls-11" points="371.15 186.87 355.13 185.9 347.95 171.55 356.79 158.16 372.81 159.12 379.99 173.47 371.15 186.87"/><polygon class="cls-11" points="371.15 158.16 355.13 157.19 347.95 142.84 356.79 129.45 372.81 130.41 379.99 144.76 371.15 158.16"/><polygon class="cls-11" points="371.15 129.45 355.13 128.49 347.95 114.13 356.79 100.74 372.81 101.7 379.99 116.06 371.15 129.45"/><polygon class="cls-11" points="371.15 100.74 355.13 99.78 347.95 85.42 356.79 72.03 372.81 72.99 379.99 87.35 371.15 100.74"/><polygon class="cls-11" points="371.15 72.03 355.13 71.07 347.95 56.71 356.79 43.32 372.81 44.28 379.99 58.64 371.15 72.03"/><polygon class="cls-11" points="371.15 43.32 355.13 42.36 347.95 28 356.79 14.61 372.81 15.57 379.99 29.93 371.15 43.32"/><polygon class="cls-11" points="346.31 172.51 330.3 171.55 323.12 157.19 331.96 143.8 347.98 144.76 355.16 159.12 346.31 172.51"/><polygon class="cls-11" points="346.31 143.8 330.3 142.84 323.12 128.49 331.96 115.09 347.98 116.06 355.16 130.41 346.31 143.8"/><polygon class="cls-11" points="346.31 115.09 330.3 114.13 323.12 99.78 331.96 86.39 347.98 87.35 355.16 101.7 346.31 115.09"/><polygon class="cls-11" points="346.31 86.39 330.3 85.42 323.12 71.07 331.96 57.68 347.98 58.64 355.16 72.99 346.31 86.39"/><polygon class="cls-11" points="346.31 57.68 330.3 56.71 323.12 42.36 331.96 28.97 347.98 29.93 355.16 44.28 346.31 57.68"/><polygon class="cls-11" points="346.31 28.97 330.3 28 323.12 13.65 331.96 0.26 347.98 1.22 355.16 15.57 346.31 28.97"/><polygon class="cls-11" points="321.48 244.28 305.46 243.32 298.29 228.97 307.13 215.57 323.15 216.54 330.32 230.89 321.48 244.28"/><polygon class="cls-11" points="321.48 215.57 305.46 214.61 298.29 200.26 307.13 186.87 323.15 187.83 330.32 202.18 321.48 215.57"/><polygon class="cls-11" points="321.48 186.87 305.46 185.9 298.29 171.55 307.13 158.16 323.15 159.12 330.32 173.47 321.48 186.87"/><polygon class="cls-11" points="321.48 158.16 305.46 157.19 298.29 142.84 307.13 129.45 323.15 130.41 330.32 144.76 321.48 158.16"/><polygon class="cls-11" points="321.48 129.45 305.46 128.49 298.29 114.13 307.13 100.74 323.15 101.7 330.32 116.06 321.48 129.45"/><polygon class="cls-11" points="321.48 100.74 305.46 99.78 298.29 85.42 307.13 72.03 323.15 72.99 330.32 87.35 321.48 100.74"/><polygon class="cls-11" points="321.48 72.03 305.46 71.07 298.29 56.71 307.13 43.32 323.15 44.28 330.32 58.64 321.48 72.03"/><polygon class="cls-11" points="321.48 43.32 305.46 42.36 298.29 28 307.13 14.61 323.15 15.57 330.32 29.93 321.48 43.32"/><polygon class="cls-11" points="296.65 229.93 280.63 228.97 273.45 214.61 282.3 201.22 298.31 202.18 305.49 216.54 296.65 229.93"/><polygon class="cls-11" points="296.65 201.22 280.63 200.26 273.45 185.9 282.3 172.51 298.31 173.47 305.49 187.83 296.65 201.22"/><polygon class="cls-11" points="296.65 172.51 280.63 171.55 273.45 157.19 282.3 143.8 298.31 144.76 305.49 159.12 296.65 172.51"/><polygon class="cls-11" points="296.65 143.8 280.63 142.84 273.45 128.49 282.3 115.09 298.31 116.06 305.49 130.41 296.65 143.8"/><polygon class="cls-11" points="296.65 115.09 280.63 114.13 273.45 99.78 282.3 86.39 298.31 87.35 305.49 101.7 296.65 115.09"/><polygon class="cls-11" points="296.65 86.39 280.63 85.42 273.45 71.07 282.3 57.68 298.31 58.64 305.49 72.99 296.65 86.39"/><polygon class="cls-11" points="296.65 57.68 280.63 56.71 273.45 42.36 282.3 28.97 298.31 29.93 305.49 44.28 296.65 57.68"/><polygon class="cls-11" points="296.65 28.97 280.63 28 273.45 13.65 282.3 0.26 298.31 1.22 305.49 15.57 296.65 28.97"/><polygon class="cls-11" points="271.82 158.16 255.8 157.19 248.62 142.84 257.46 129.45 273.48 130.41 280.66 144.76 271.82 158.16"/><polygon class="cls-11" points="271.82 129.45 255.8 128.49 248.62 114.13 257.46 100.74 273.48 101.7 280.66 116.06 271.82 129.45"/><polygon class="cls-11" points="271.82 100.74 255.8 99.78 248.62 85.42 257.46 72.03 273.48 72.99 280.66 87.35 271.82 100.74"/><polygon class="cls-11" points="271.82 72.03 255.8 71.07 248.62 56.71 257.46 43.32 273.48 44.28 280.66 58.64 271.82 72.03"/><polygon class="cls-11" points="271.82 43.32 255.8 42.36 248.62 28 257.46 14.61 273.48 15.57 280.66 29.93 271.82 43.32"/></g><g id="NT"><polygon class="cls-12" points="271.82 244.28 255.8 243.32 248.62 228.97 257.46 215.57 273.48 216.54 280.66 230.89 271.82 244.28"/><polygon class="cls-12" points="271.82 215.57 255.8 214.61 248.62 200.26 257.46 186.87 273.48 187.83 280.66 202.18 271.82 215.57"/><polygon class="cls-12" points="271.82 186.87 255.8 185.9 248.62 171.55 257.46 158.16 273.48 159.12 280.66 173.47 271.82 186.87"/><polygon class="cls-12" points="246.98 258.64 230.96 257.68 223.79 243.32 232.63 229.93 248.65 230.89 255.83 245.24 246.98 258.64"/><polygon class="cls-12" points="246.98 229.93 230.96 228.97 223.79 214.61 232.63 201.22 248.65 202.18 255.83 216.54 246.98 229.93"/><polygon class="cls-12" points="246.98 201.22 230.96 200.26 223.79 185.9 232.63 172.51 248.65 173.47 255.83 187.83 246.98 201.22"/><polygon class="cls-12" points="246.98 172.51 230.96 171.55 223.79 157.19 232.63 143.8 248.65 144.76 255.83 159.12 246.98 172.51"/><polygon class="cls-12" points="246.98 143.8 230.96 142.84 223.79 128.49 232.63 115.09 248.65 116.06 255.83 130.41 246.98 143.8"/><polygon class="cls-12" points="246.98 115.09 230.96 114.13 223.79 99.78 232.63 86.39 248.65 87.35 255.83 101.7 246.98 115.09"/><polygon class="cls-12" points="246.98 86.39 230.96 85.42 223.79 71.07 232.63 57.68 248.65 58.64 255.83 72.99 246.98 86.39"/><polygon class="cls-12" points="246.98 57.68 230.96 56.71 223.79 42.36 232.63 28.97 248.65 29.93 255.83 44.28 246.98 57.68"/><polygon class="cls-12" points="246.98 28.97 230.96 28 223.79 13.65 232.63 0.26 248.65 1.22 255.83 15.57 246.98 28.97"/><polygon class="cls-12" points="222.15 244.28 206.13 243.32 198.95 228.97 207.8 215.57 223.81 216.54 230.99 230.89 222.15 244.28"/><polygon class="cls-12" points="222.15 215.57 206.13 214.61 198.95 200.26 207.8 186.87 223.81 187.83 230.99 202.18 222.15 215.57"/><polygon class="cls-12" points="222.15 186.87 206.13 185.9 198.95 171.55 207.8 158.16 223.81 159.12 230.99 173.47 222.15 186.87"/><polygon class="cls-12" points="222.15 158.16 206.13 157.19 198.95 142.84 207.8 129.45 223.81 130.41 230.99 144.76 222.15 158.16"/><polygon class="cls-12" points="222.15 129.45 206.13 128.49 198.95 114.13 207.8 100.74 223.81 101.7 230.99 116.06 222.15 129.45"/><polygon class="cls-12" points="222.15 100.74 206.13 99.78 198.95 85.42 207.8 72.03 223.81 72.99 230.99 87.35 222.15 100.74"/><polygon class="cls-12" points="222.15 72.03 206.13 71.07 198.95 56.71 207.8 43.32 223.81 44.28 230.99 58.64 222.15 72.03"/><polygon class="cls-12" points="222.15 43.32 206.13 42.36 198.95 28 207.8 14.61 223.81 15.57 230.99 29.93 222.15 43.32"/><polygon class="cls-12" points="197.32 258.64 181.3 257.68 174.12 243.32 182.96 229.93 198.98 230.89 206.16 245.24 197.32 258.64"/><polygon class="cls-12" points="197.32 229.93 181.3 228.97 174.12 214.61 182.96 201.22 198.98 202.18 206.16 216.54 197.32 229.93"/><polygon class="cls-12" points="197.32 201.22 181.3 200.26 174.12 185.9 182.96 172.51 198.98 173.47 206.16 187.83 197.32 201.22"/><polygon class="cls-12" points="197.32 172.51 181.3 171.55 174.12 157.19 182.96 143.8 198.98 144.76 206.16 159.12 197.32 172.51"/><polygon class="cls-12" points="197.32 143.8 181.3 142.84 174.12 128.49 182.96 115.09 198.98 116.06 206.16 130.41 197.32 143.8"/><polygon class="cls-12" points="197.32 115.09 181.3 114.13 174.12 99.78 182.96 86.39 198.98 87.35 206.16 101.7 197.32 115.09"/><polygon class="cls-12" points="197.32 86.39 181.3 85.42 174.12 71.07 182.96 57.68 198.98 58.64 206.16 72.99 197.32 86.39"/><polygon class="cls-12" points="197.32 57.68 181.3 56.71 174.12 42.36 182.96 28.97 198.98 29.93 206.16 44.28 197.32 57.68"/><polygon class="cls-12" points="197.32 28.97 181.3 28 174.12 13.65 182.96 0.26 198.98 1.22 206.16 15.57 197.32 28.97"/><polygon class="cls-12" points="172.48 244.28 156.46 243.32 149.29 228.97 158.13 215.57 174.15 216.54 181.33 230.89 172.48 244.28"/><polygon class="cls-12" points="172.48 215.57 156.46 214.61 149.29 200.26 158.13 186.87 174.15 187.83 181.33 202.18 172.48 215.57"/><polygon class="cls-12" points="172.48 186.87 156.46 185.9 149.29 171.55 158.13 158.16 174.15 159.12 181.33 173.47 172.48 186.87"/><polygon class="cls-12" points="172.48 158.16 156.46 157.19 149.29 142.84 158.13 129.45 174.15 130.41 181.33 144.76 172.48 158.16"/><polygon class="cls-12" points="172.48 129.45 156.46 128.49 149.29 114.13 158.13 100.74 174.15 101.7 181.33 116.06 172.48 129.45"/><polygon class="cls-12" points="172.48 100.74 156.46 99.78 149.29 85.42 158.13 72.03 174.15 72.99 181.33 87.35 172.48 100.74"/><polygon class="cls-12" points="172.48 72.03 156.46 71.07 149.29 56.71 158.13 43.32 174.15 44.28 181.33 58.64 172.48 72.03"/><polygon class="cls-12" points="172.48 43.32 156.46 42.36 149.29 28 158.13 14.61 174.15 15.57 181.33 29.93 172.48 43.32"/><polygon class="cls-12" points="147.65 258.64 131.63 257.68 124.45 243.32 133.3 229.93 149.32 230.89 156.49 245.24 147.65 258.64"/><polygon class="cls-12" points="147.65 229.93 131.63 228.97 124.45 214.61 133.3 201.22 149.32 202.18 156.49 216.54 147.65 229.93"/><polygon class="cls-12" points="147.65 201.22 131.63 200.26 124.45 185.9 133.3 172.51 149.32 173.47 156.49 187.83 147.65 201.22"/><polygon class="cls-12" points="147.65 172.51 131.63 171.55 124.45 157.19 133.3 143.8 149.32 144.76 156.49 159.12 147.65 172.51"/><polygon class="cls-12" points="147.65 143.8 131.63 142.84 124.45 128.49 133.3 115.09 149.32 116.06 156.49 130.41 147.65 143.8"/><polygon class="cls-12" points="147.65 115.09 131.63 114.13 124.45 99.78 133.3 86.39 149.32 87.35 156.49 101.7 147.65 115.09"/><polygon class="cls-12" points="147.65 86.39 131.63 85.42 124.45 71.07 133.3 57.68 149.32 58.64 156.49 72.99 147.65 86.39"/><polygon class="cls-12" points="147.65 57.68 131.63 56.71 124.45 42.36 133.3 28.97 149.32 29.93 156.49 44.28 147.65 57.68"/><polygon class="cls-12" points="122.82 244.28 106.8 243.32 99.62 228.97 108.46 215.57 124.48 216.54 131.66 230.89 122.82 244.28"/><polygon class="cls-12" points="122.82 215.57 106.8 214.61 99.62 200.26 108.46 186.87 124.48 187.83 131.66 202.18 122.82 215.57"/><polygon class="cls-12" points="122.82 186.87 106.8 185.9 99.62 171.55 108.46 158.16 124.48 159.12 131.66 173.47 122.82 186.87"/><polygon class="cls-12" points="122.82 158.16 106.8 157.19 99.62 142.84 108.46 129.45 124.48 130.41 131.66 144.76 122.82 158.16"/><polygon class="cls-12" points="122.82 129.45 106.8 128.49 99.62 114.13 108.46 100.74 124.48 101.7 131.66 116.06 122.82 129.45"/><polygon class="cls-12" points="122.82 100.74 106.8 99.78 99.62 85.42 108.46 72.03 124.48 72.99 131.66 87.35 122.82 100.74"/><polygon class="cls-12" points="122.82 72.03 106.8 71.07 99.62 56.71 108.46 43.32 124.48 44.28 131.66 58.64 122.82 72.03"/><polygon class="cls-12" points="122.82 43.32 106.8 42.36 99.62 28 108.46 14.61 124.48 15.57 131.66 29.93 122.82 43.32"/></g></svg>